<svg id="_x33_0" enable-background="new 0 0 64 64" height="512" viewBox="0 0 64 64" width="512" xmlns="http://www.w3.org/2000/svg"><path d="m57.544 8.083c-1.91.478-3.394 1.842-4.096 3.583-.903-1.164-2.162-2.023-3.61-2.42.105-.405.162-.824.162-1.246 0-2.757-2.243-5-5-5-.743 0-1.472.182-2.138.498-1.091-1.51-2.861-2.498-4.862-2.498-3.003 0-5.49 2.219-5.925 5.102-.35-.064-.708-.102-1.075-.102-.03 0-.059.008-.089.008-.475-2.837-2.941-5.008-5.911-5.008-1.938 0-3.742.959-4.859 2.501-.651-.312-1.372-.501-2.141-.501-2.757 0-5 2.243-5 5 0 .538.095 1.065.261 1.568-1.069.461-2 1.183-2.71 2.098-.701-1.741-2.185-3.105-4.095-3.583l-5.456-1.364v4.281c0 3.309 2.691 6 6 6h.484c-2.107 1.195-3.484 3.448-3.484 6v1h3.615c1.196 0 2.322-.354 3.273-.972-1.14.884-1.888 2.252-1.888 3.803 0 1.688.899 3.275 2.345 4.142l2.388 1.433c2.77 1.662 5.136 3.924 6.935 6.594h-1.668v3.343c0 1.335.52 2.591 1.464 3.535l.424.424c-.556.811-.888 1.78-.888 2.821v3.877h1c1.494 0 2.944-.263 4.315-.742l-1.201 4.202c-.075.268-.114.542-.114.818 0 1.477 1.102 2.747 2.563 2.956l4.352.622.021.288c.075 1.04.951 1.856 1.995 1.856h4.488c1.975 0 3.581-1.606 3.581-3.581 0-.385-.062-.765-.184-1.133l-1.993-5.978c1.33.447 2.733.692 4.177.692h1v-3.877c0-1.041-.332-2.01-.888-2.821l.424-.424c.944-.944 1.464-2.199 1.464-3.535v-3.343h-1.668c1.799-2.67 4.165-4.932 6.935-6.594l2.387-1.433c1.447-.867 2.346-2.454 2.346-4.142 0-1.551-.748-2.919-1.888-3.803.952.618 2.078.972 3.273.972h3.615v-1c0-2.552-1.377-4.805-3.484-6h.484c3.309 0 6-2.691 6-6v-4.281zm-4.709 7.014.086.518-1.002.876-.406-.162c-1.526-.611-2.513-2.069-2.513-3.714v-1.513c1.952.401 3.496 1.958 3.835 3.995zm-3.835 10.321c0 .563-.333 1.073-.85 1.299l-4.308 1.885c-.676.296-1.333.629-1.984.97.04-.222.069-.445.09-.67l.317-.211c1.835-1.222 3.305-2.841 4.366-4.691h.95c.783 0 1.419.636 1.419 1.418zm-15 20.582c0 1.103-.897 2-2 2s-2-.897-2-2 .897-2 2-2 2 .897 2 2zm-1.99-8.407c-.707-.861-1.455-1.684-2.246-2.464l-.373-1.121c-.26-.776-.391-1.585-.391-2.404 0-1.505.441-2.963 1.276-4.216l1.724-2.585 1.724 2.585c.835 1.253 1.276 2.711 1.276 4.216 0 .819-.131 1.628-.39 2.404l-.387 1.163c-.779.769-1.517 1.576-2.213 2.422zm-18.276-19.654c.68-.348 1.278-.805 1.766-1.358v.462c0 .916.114 1.812.286 2.691zm8.73-6.939c1.398 0 2.536 1.138 2.536 2.536 0 .677-.264 1.314-.743 1.793l-1.343 1.343c-.212.211-.493.328-.793.328-.618 0-1.121-.503-1.121-1.121 0-.3.117-.581.328-.793l1.379-1.379-1.414-1.414-1.379 1.379c-.589.589-.914 1.373-.914 2.207 0 1.683 1.34 3.049 3.008 3.11.028 1.358.296 2.685.793 3.931l-.801-.201v3.667c-2.827-2.267-4.5-5.678-4.5-9.344v-1.067c0-1.329.518-2.578 1.464-3.525.935-.935 2.178-1.45 3.5-1.45zm14.575 2.152c-.011.129-.039.252-.039.384 0 1.211.472 2.351 1.329 3.207l1.343 1.343c.102.102.216.184.328.27v.402c0 1.715-.488 3.371-1.382 4.827-1.366.427-2.562 1.255-3.437 2.384l-2.181-3.272v-1.549c0-3.195 1.544-6.133 4.039-7.996zm4.497-2.152c1.322 0 2.565.515 3.507 1.457.939.94 1.457 2.189 1.457 3.518v1.067c0 3.665-1.673 7.077-4.5 9.344v-3.667l-.802.201c.497-1.246.766-2.573.793-3.931 1.669-.061 3.009-1.427 3.009-3.11 0-.834-.325-1.618-.914-2.207l-1.379-1.379-1.414 1.414 1.379 1.379c.211.212.328.493.328.793 0 .618-.503 1.121-1.121 1.121-.3 0-.581-.117-.793-.328l-1.343-1.343c-.479-.479-.743-1.116-.743-1.793 0-1.398 1.138-2.536 2.536-2.536zm-10.536 11.697-2.181 3.271c-.875-1.129-2.071-1.957-3.437-2.384-.894-1.456-1.382-3.112-1.382-4.827v-.402c.112-.086.227-.168.328-.27l1.343-1.343c.857-.856 1.329-1.995 1.329-3.206 0-.131-.028-.255-.039-.383 2.495 1.862 4.039 4.8 4.039 7.995zm-14.582 1.303h.95c1.061 1.85 2.531 3.469 4.366 4.691l.317.211c.021.22.048.438.087.655-.649-.339-1.308-.661-1.981-.955l-4.308-1.885c-.516-.225-.849-.735-.849-1.299 0-.782.636-1.418 1.418-1.418zm8.41 7.148c-.537-.901-.828-1.924-.828-2.977v-2.891l.507.127c1.209.302 2.256 1.04 2.947 2.077l.298.447c-.481 1.161-.752 2.4-.752 3.673 0 .384.031.764.076 1.143-.723-.569-1.479-1.094-2.248-1.599zm11.419-3.216.298-.447c.691-1.038 1.738-1.775 2.948-2.077l.507-.127v2.891c0 1.044-.287 2.059-.816 2.955-.778.51-1.531 1.055-2.261 1.63.046-.382.077-.766.077-1.153 0-1.273-.271-2.512-.753-3.672zm12.253-10.89v-.462c.488.553 1.086 1.01 1.766 1.358l-2.052 1.795c.172-.879.286-1.775.286-2.691zm-3.5-12.042c1.654 0 3 1.346 3 3 0 .345-.08.678-.194 1h-.806v2.662c-.171-.217-.352-.428-.55-.626-.828-.828-1.829-1.42-2.922-1.746.299-.721.472-1.489.472-2.29 0-.597-.09-1.172-.253-1.717.39-.18.811-.283 1.253-.283zm-7-2c2.206 0 4 1.794 4 4 0 .717-.195 1.401-.551 2.009-.926.018-1.784.311-2.496.807l-.827.367c-.431.192-.843.413-1.242.65-.339-1.71-1.408-3.157-2.866-4.011.095-2.121 1.837-3.822 3.982-3.822zm-3 9c0 .078-.012.152-.016.229-1.283 1.154-2.299 2.569-2.984 4.145-.987-2.27-2.663-4.208-4.829-5.508.493-1.67 2.036-2.866 3.829-2.866 2.206 0 4 1.794 4 4zm-10-9c1.971 0 3.603 1.436 3.93 3.376-1.644.607-2.952 1.917-3.557 3.584l-.326-.145c-.626-.436-1.369-.7-2.168-.774.072-.341.121-.688.121-1.041 0-1.267-.489-2.412-1.269-3.295.742-1.05 1.96-1.705 3.269-1.705zm-10 5c0-1.654 1.346-3 3-3s3 1.346 3 3c0 .425-.091.841-.262 1.224-1.196.305-2.296.92-3.195 1.819-.196.196-.374.404-.543.617v-2.66h-1c-.272 0-.538.021-.802.051-.126-.334-.198-.688-.198-1.051zm-3.835 7.097c.339-2.037 1.884-3.594 3.835-3.995v1.513c0 1.646-.987 3.103-2.514 3.714l-.406.162-1.002-.876zm-8.165-4.097v-1.719l2.97.743c1.784.446 3.03 2.041 3.03 3.88v1.096h-2c-2.206 0-4-1.794-4-4zm4.615 11h-1.513c.401-1.952 1.958-3.496 3.995-3.835l.721-.12.805.705-.295.736c-.61 1.527-2.068 2.514-3.713 2.514zm5.571-1.771.033-.083 2.12 1.854h-1.508c-.951 0-1.833.286-2.582.762.841-.642 1.523-1.499 1.937-2.533zm1.576 10.462-2.388-1.433c-.848-.508-1.374-1.438-1.374-2.427 0-1.375.986-2.522 2.288-2.776-.183.418-.288.878-.288 1.363 0 1.358.804 2.588 2.048 3.131l4.308 1.885c4.455 1.95 8.377 4.986 11.401 8.788-.568.788-1.098 1.603-1.593 2.443-1.71-1.477-3.822-2.387-6.096-2.605-2.03-3.427-4.886-6.317-8.306-8.369zm7.238 18.432c0-1.379.935-2.576 2.272-2.91l.97-.243-.485-1.94-.97.243c-.532.133-1.023.353-1.467.634l-.442-.442c-.558-.559-.878-1.332-.878-2.122v-1.343h1c2.544 0 4.907 1.056 6.608 2.906-.379.611-.608 1.324-.608 2.094 0 .734.213 1.413.559 2.005-1.814 1.701-4.1 2.732-6.559 2.951zm4.846 9.131c-.482-.069-.846-.489-.846-.976 0-.091.013-.183.038-.271l1.68-5.878c.8-.482 1.553-1.05 2.247-1.706.046.027.093.051.14.076l.665 9.314zm12.072.663c.055.163.082.332.082.502 0 .872-.709 1.581-1.581 1.581h-4.488l-.787-11.015c.691-.025 1.333-.228 1.892-.561.708.669 1.478 1.247 2.297 1.735zm3.082-7.961c-2.459-.219-4.745-1.25-6.559-2.951.346-.592.559-1.271.559-2.005 0-.77-.229-1.483-.608-2.094 1.701-1.85 4.064-2.906 6.608-2.906h1v1.343c0 .79-.32 1.563-.878 2.121l-.442.442c-.444-.281-.934-.501-1.467-.634l-.97-.243-.485 1.94.971.243c1.336.335 2.271 1.532 2.271 2.911zm9.625-21.698-2.388 1.433c-3.42 2.052-6.276 4.942-8.305 8.369-2.688.257-5.152 1.481-6.987 3.466-.578-.325-1.235-.526-1.945-.526-.26 0-.513.029-.76.077 3.178-5.118 7.867-9.22 13.404-11.642l4.307-1.884c1.245-.545 2.049-1.774 2.049-3.133 0-.485-.105-.945-.288-1.364 1.302.255 2.288 1.402 2.288 2.777 0 .989-.526 1.919-1.375 2.427zm-1.456-7.258h-1.508l2.119-1.854.033.083c.414 1.035 1.096 1.892 1.937 2.534-.748-.477-1.63-.763-2.581-.763zm6.216 0c-1.646 0-3.103-.987-3.714-2.515l-.295-.736.805-.705.721.12c2.037.339 3.594 1.884 3.995 3.835h-1.512zm4.615-11c0 2.206-1.794 4-4 4h-2v-1.096c0-1.838 1.246-3.434 3.03-3.88l2.97-.743z"/></svg>