<svg width="512" height="512" viewBox="0 0 512 512" fill="none" xmlns="http://www.w3.org/2000/svg">
<path d="M223.82 82.64L223.821 82.6398L223.877 82.5833C227.357 79.1032 227.336 73.4825 223.848 69.9937C220.368 66.5126 214.692 66.5337 211.203 70.0215C211.203 70.0216 211.203 70.0216 211.203 70.0216M223.82 82.64L211.203 70.0216M223.82 82.64C222.079 84.3824 219.797 85.2531 217.512 85.2531C215.227 85.2531 212.946 84.3825 211.203 82.6399M223.82 82.64L211.203 82.6399M211.203 70.0216C207.719 73.5055 207.719 79.1548 211.203 82.6399M211.203 70.0216L211.203 82.6399" fill="white" stroke="white" stroke-width="2"/>
<path d="M82.5873 223.877L82.5871 223.877C80.8456 225.62 78.5634 226.49 76.2786 226.49C73.9939 226.49 71.7126 225.62 69.9699 223.877C66.4859 220.392 66.486 214.743 69.9699 211.259C73.4577 207.771 79.1347 207.75 82.6149 211.231C86.1029 214.72 86.124 220.34 82.6438 223.821L82.5873 223.877Z" fill="white" stroke="white" stroke-width="2"/>
<path d="M178.223 178.086L178.217 178.092L178.193 178.118C176.446 179.892 174.141 180.782 171.832 180.782C169.573 180.782 167.316 179.93 165.578 178.223C162.065 174.768 162.016 169.118 165.47 165.605L164.757 164.904L165.47 165.605C168.927 162.089 174.589 162.03 178.102 165.483L178.803 164.77L178.102 165.483C181.617 168.94 181.676 174.574 178.224 178.086L178.223 178.086Z" fill="white" stroke="white" stroke-width="2"/>
<mask id="path-4-inside-1" fill="white">
<path d="M511.839 404.069C510.478 393.321 500.741 387.569 497.542 385.679L438.394 350.726C438.868 348.507 439.117 346.222 439.115 343.896C439.108 335.282 435.761 327.206 429.713 321.177C424.945 316.395 418.92 313.311 412.366 312.211C413.954 279.986 407.795 241.372 394.335 199.661C379.984 155.189 357.846 109.676 332.003 71.5052C323.056 58.2842 313.597 50.9301 303.084 49.0241C297.238 47.9645 291.373 48.6759 285.561 51.1345C282.572 48.2453 279.187 45.7995 275.503 43.9034C275.879 32.266 271.464 20.7507 263.118 12.4331C255.1 4.41525 244.445 0 233.111 0C233.104 0 233.094 0 233.087 0C222.656 0.00595314 212.805 3.75346 205.07 10.6006C190.148 5.79737 174.068 9.62821 162.467 21.2269C156.183 27.5105 152.2 35.1126 150.614 43.1295C144.212 39.384 136.908 37.3768 129.292 37.3728C129.284 37.3728 129.277 37.3728 129.269 37.3728C118.833 37.3728 108.969 41.1174 101.213 47.9714C86.2998 43.1871 70.2253 47.0288 58.6306 58.6246C47.0338 70.2203 43.1931 86.2938 47.9764 101.21C41.1164 108.973 37.3729 118.845 37.3788 129.29C37.3828 136.908 39.391 144.213 43.1355 150.613C35.1196 152.199 27.5185 156.181 21.2349 162.464C9.63323 174.066 5.80238 190.146 10.6076 205.07C3.75847 212.808 0.0129498 222.657 0.00699671 233.086C5.13723e-05 244.429 4.41629 255.094 12.4282 263.107C20.7557 271.462 32.279 275.881 43.9094 275.503C45.8065 279.187 48.2523 282.574 51.1415 285.563C48.6848 291.372 47.9715 297.234 49.0281 303.076C50.9302 313.592 58.2813 323.061 71.5181 332.037C90.8837 345.121 111.873 357.169 133.905 367.849C135.299 368.524 136.773 368.845 138.225 368.845C141.908 368.845 145.446 366.785 147.161 363.248C149.551 358.317 147.491 352.382 142.56 349.992C121.376 339.723 101.211 328.15 82.6406 315.605C74.3032 309.95 69.4325 304.398 68.5554 299.545C68.4592 299.013 68.2786 297.977 68.5078 296.449C72.6939 297.806 77.1091 298.521 81.6365 298.521C92.9723 298.521 103.63 294.105 111.648 286.087C117.573 280.162 121.579 272.582 123.222 264.457C131.346 262.814 138.927 258.808 144.851 252.883C147.478 250.255 149.711 247.335 151.537 244.205C158.881 249.802 167.798 252.84 177.186 252.84H177.21C188.538 252.834 199.183 248.416 207.158 240.421C213.185 234.42 217.168 226.947 218.79 218.791C226.945 217.171 234.413 213.191 240.397 207.181C248.413 199.182 252.831 188.539 252.838 177.21C252.843 167.813 249.805 158.886 244.203 151.535C247.333 149.709 250.253 147.475 252.881 144.848C258.805 138.924 262.811 131.343 264.455 123.218C272.579 121.575 280.159 117.569 286.083 111.643C297.734 99.9929 301.17 83.2021 296.416 68.5068C297.96 68.2706 299.007 68.4532 299.541 68.5494C304.387 69.4285 309.929 74.2962 315.566 82.6286C365.964 157.064 396.947 251.526 392.302 315.249C389.333 316.763 386.586 318.742 384.164 321.164L374.274 331.055C369.645 303.08 356.517 273.874 334.49 242.414C331.347 237.925 325.16 236.834 320.672 239.976C316.183 243.119 315.092 249.306 318.234 253.794C342.578 288.564 355.031 319.79 356.231 349.097L349.087 356.241C310.571 354.69 269.163 333.922 219.225 291.18C215.06 287.615 208.798 288.103 205.235 292.267C201.672 296.43 202.158 302.693 206.321 306.256C252.751 345.995 292.982 368.027 331.036 374.292L321.074 384.254C321.07 384.258 321.066 384.261 321.063 384.265C318.65 386.686 316.707 389.401 315.224 392.291C289.595 394.158 258.454 390.32 224.663 381.076C219.372 379.628 213.92 382.742 212.474 388.028C211.027 393.313 214.141 398.77 219.426 400.216C249.361 408.405 277.57 412.596 302.284 412.596C305.631 412.596 308.907 412.509 312.121 412.355C313.184 418.749 316.166 424.881 321.086 429.8C327.358 436.053 335.596 439.178 343.837 439.178C346.147 439.178 348.456 438.923 350.724 438.431L385.67 497.544C387.561 500.745 393.313 510.482 404.061 511.842C404.876 511.945 405.691 511.997 406.506 511.997C412.862 511.997 419.212 508.865 425.417 502.661L502.654 425.42C509.657 418.424 512.746 411.238 511.839 404.069V404.069ZM63.8445 113.287C64.4081 112.724 65.0758 112.136 65.947 111.44C69.6617 108.466 70.7432 103.275 68.5237 99.0652C62.8543 88.3129 66.9441 78.3721 72.6611 72.6551C78.3781 66.9381 88.3159 62.8503 99.0693 68.5187C103.278 70.7382 108.47 69.6567 111.444 65.942C112.139 65.0728 112.728 64.4041 113.293 63.8375C117.564 59.5671 123.236 57.2166 129.27 57.2166H129.282C135.306 57.2196 140.966 59.5691 145.224 63.8375C146.51 65.1234 147.619 66.5393 148.551 68.0682C143.806 75.0265 141.246 83.2378 141.241 91.8481C141.239 96.1274 141.868 100.309 143.081 104.291C133.468 105.131 124.208 109.357 116.786 116.781C109.362 124.204 105.136 133.463 104.296 143.078C100.322 141.867 96.1493 141.238 91.8779 141.238C91.8699 141.238 91.861 141.238 91.8531 141.238C83.2409 141.243 75.0285 143.804 68.0732 148.547C66.5433 147.614 65.1254 146.504 63.8356 145.214C59.5741 140.962 57.2256 135.303 57.2217 129.279C57.2187 123.241 59.5702 117.563 63.8445 113.287V113.287ZM114.361 245.446C111.65 245.399 109.033 246.433 107.115 248.35C105.198 250.267 104.149 252.886 104.212 255.596C104.357 261.812 102.014 267.658 97.6167 272.056C93.3473 276.325 87.672 278.677 81.6375 278.677C75.603 278.677 69.9276 276.325 65.6583 272.055C62.894 269.29 60.8838 265.829 59.846 262.042C58.4232 256.854 53.1259 253.744 47.901 255.033C40.1093 256.954 32.1024 254.737 26.4717 249.087C22.1983 244.814 19.8468 239.136 19.8508 233.097C19.8538 227.074 22.2033 221.414 26.4717 217.155C27.198 216.428 27.8508 215.841 28.469 215.361C32.2681 212.405 33.3982 207.151 31.1499 202.895C25.4706 192.145 29.5524 182.209 35.2655 176.496C40.9785 170.783 50.9143 166.702 61.6617 172.38C65.9172 174.629 71.1728 173.498 74.1276 169.699C74.6078 169.081 75.1942 168.428 75.9284 167.694C80.18 163.434 85.8384 161.084 91.862 161.081H91.8759C95.7147 161.081 99.4036 162.041 102.682 163.833C98.0275 170.764 95.5271 178.913 95.5321 187.446C95.5381 198.773 99.9563 209.419 107.965 217.409C115.707 225.151 125.799 229.457 136.348 229.827C135.261 233.19 133.39 236.278 130.818 238.849C126.423 243.247 120.586 245.588 114.361 245.446V245.446ZM226.359 193.158C221.994 197.543 216.12 199.87 209.884 199.766C207.194 199.709 204.58 200.761 202.671 202.67C200.762 204.579 199.713 207.183 199.767 209.883C199.891 216.142 197.544 221.994 193.136 226.383C188.884 230.645 183.225 232.993 177.201 232.997C177.197 232.997 177.193 232.997 177.188 232.997C171.156 232.997 165.483 230.646 161.212 226.375C158.42 223.583 156.416 220.132 155.417 216.396C154.233 211.967 150.229 209.034 145.838 209.034C145.045 209.034 144.241 209.13 143.437 209.329C135.671 211.26 127.655 209.037 121.99 203.371C117.728 199.12 115.38 193.46 115.376 187.437C115.373 181.399 117.724 175.72 121.997 171.448C122.562 170.881 123.231 170.294 124.101 169.598C127.816 166.624 128.897 161.433 126.678 157.223C121.009 146.471 125.098 136.531 130.815 130.813C136.532 125.096 146.47 121.008 157.223 126.677C161.432 128.895 166.626 127.814 169.598 124.098C170.292 123.231 170.88 122.562 171.447 121.995C175.717 117.724 181.389 115.374 187.423 115.374H187.436C193.459 115.377 199.119 117.726 203.378 121.995C209.036 127.653 211.26 135.668 209.328 143.435C208.023 148.687 211.166 154.017 216.394 155.415C220.13 156.414 223.581 158.418 226.373 161.21C230.647 165.483 232.998 171.162 232.994 177.2C232.992 183.223 230.644 188.882 226.359 193.158V193.158ZM272.054 97.6127C267.656 102.01 261.814 104.337 255.596 104.208C252.894 104.137 250.267 105.193 248.35 107.111C246.433 109.028 245.384 111.646 245.447 114.357C245.591 120.574 243.248 126.419 238.851 130.816C236.28 133.387 233.193 135.258 229.83 136.345C229.46 125.797 225.156 115.705 217.42 107.969C209.421 99.9523 198.776 95.534 187.449 95.5271C187.441 95.5271 187.433 95.5271 187.425 95.5271C178.901 95.5271 170.762 98.0264 163.838 102.677C162.045 99.3947 161.084 95.7007 161.086 91.858C161.089 85.8344 163.439 80.1749 167.707 75.9155C168.434 75.1882 169.087 74.6008 169.703 74.1216C173.502 71.1658 174.633 65.9112 172.384 61.6557C166.705 50.9053 170.787 40.9695 176.501 35.2565C182.213 29.5435 192.149 25.4606 202.898 31.1409C207.156 33.3912 212.413 32.2571 215.368 28.456C215.843 27.8438 216.43 27.192 217.166 26.4548C221.417 22.1933 227.077 19.8448 233.1 19.8408H233.113C239.146 19.8408 244.819 22.1923 249.1 26.4746C254.738 32.0934 256.957 40.1004 255.035 47.893C253.746 53.1169 256.855 58.4152 262.043 59.838C265.829 60.8758 269.291 62.886 272.055 65.6503C276.325 69.9197 278.677 75.595 278.677 81.6295C278.676 87.668 276.323 93.3433 272.054 97.6127ZM335.11 415.759C330.304 410.952 330.307 403.116 335.113 398.284L398.199 335.198C400.522 332.875 403.626 331.596 406.944 331.596H406.954C410.261 331.599 413.353 332.874 415.679 335.209C417.992 337.513 419.267 340.604 419.269 343.912C419.272 347.234 417.993 350.343 415.667 352.669L352.59 415.748C347.769 420.554 339.921 420.555 335.11 415.759V415.759ZM488.625 411.393L411.388 488.632C408.579 491.442 406.982 492.02 406.564 492.129C406.19 491.918 404.836 490.968 402.759 487.451L367.907 428.496L428.483 367.919L487.448 402.764C490.963 404.839 491.912 406.193 492.124 406.567C492.013 406.985 491.435 408.583 488.625 411.393Z"/>
</mask>
<path d="M511.839 404.069C510.478 393.321 500.741 387.569 497.542 385.679L438.394 350.726C438.868 348.507 439.117 346.222 439.115 343.896C439.108 335.282 435.761 327.206 429.713 321.177C424.945 316.395 418.92 313.311 412.366 312.211C413.954 279.986 407.795 241.372 394.335 199.661C379.984 155.189 357.846 109.676 332.003 71.5052C323.056 58.2842 313.597 50.9301 303.084 49.0241C297.238 47.9645 291.373 48.6759 285.561 51.1345C282.572 48.2453 279.187 45.7995 275.503 43.9034C275.879 32.266 271.464 20.7507 263.118 12.4331C255.1 4.41525 244.445 0 233.111 0C233.104 0 233.094 0 233.087 0C222.656 0.00595314 212.805 3.75346 205.07 10.6006C190.148 5.79737 174.068 9.62821 162.467 21.2269C156.183 27.5105 152.2 35.1126 150.614 43.1295C144.212 39.384 136.908 37.3768 129.292 37.3728C129.284 37.3728 129.277 37.3728 129.269 37.3728C118.833 37.3728 108.969 41.1174 101.213 47.9714C86.2998 43.1871 70.2253 47.0288 58.6306 58.6246C47.0338 70.2203 43.1931 86.2938 47.9764 101.21C41.1164 108.973 37.3729 118.845 37.3788 129.29C37.3828 136.908 39.391 144.213 43.1355 150.613C35.1196 152.199 27.5185 156.181 21.2349 162.464C9.63323 174.066 5.80238 190.146 10.6076 205.07C3.75847 212.808 0.0129498 222.657 0.00699671 233.086C5.13723e-05 244.429 4.41629 255.094 12.4282 263.107C20.7557 271.462 32.279 275.881 43.9094 275.503C45.8065 279.187 48.2523 282.574 51.1415 285.563C48.6848 291.372 47.9715 297.234 49.0281 303.076C50.9302 313.592 58.2813 323.061 71.5181 332.037C90.8837 345.121 111.873 357.169 133.905 367.849C135.299 368.524 136.773 368.845 138.225 368.845C141.908 368.845 145.446 366.785 147.161 363.248C149.551 358.317 147.491 352.382 142.56 349.992C121.376 339.723 101.211 328.15 82.6406 315.605C74.3032 309.95 69.4325 304.398 68.5554 299.545C68.4592 299.013 68.2786 297.977 68.5078 296.449C72.6939 297.806 77.1091 298.521 81.6365 298.521C92.9723 298.521 103.63 294.105 111.648 286.087C117.573 280.162 121.579 272.582 123.222 264.457C131.346 262.814 138.927 258.808 144.851 252.883C147.478 250.255 149.711 247.335 151.537 244.205C158.881 249.802 167.798 252.84 177.186 252.84H177.21C188.538 252.834 199.183 248.416 207.158 240.421C213.185 234.42 217.168 226.947 218.79 218.791C226.945 217.171 234.413 213.191 240.397 207.181C248.413 199.182 252.831 188.539 252.838 177.21C252.843 167.813 249.805 158.886 244.203 151.535C247.333 149.709 250.253 147.475 252.881 144.848C258.805 138.924 262.811 131.343 264.455 123.218C272.579 121.575 280.159 117.569 286.083 111.643C297.734 99.9929 301.17 83.2021 296.416 68.5068C297.96 68.2706 299.007 68.4532 299.541 68.5494C304.387 69.4285 309.929 74.2962 315.566 82.6286C365.964 157.064 396.947 251.526 392.302 315.249C389.333 316.763 386.586 318.742 384.164 321.164L374.274 331.055C369.645 303.08 356.517 273.874 334.49 242.414C331.347 237.925 325.16 236.834 320.672 239.976C316.183 243.119 315.092 249.306 318.234 253.794C342.578 288.564 355.031 319.79 356.231 349.097L349.087 356.241C310.571 354.69 269.163 333.922 219.225 291.18C215.06 287.615 208.798 288.103 205.235 292.267C201.672 296.43 202.158 302.693 206.321 306.256C252.751 345.995 292.982 368.027 331.036 374.292L321.074 384.254C321.07 384.258 321.066 384.261 321.063 384.265C318.65 386.686 316.707 389.401 315.224 392.291C289.595 394.158 258.454 390.32 224.663 381.076C219.372 379.628 213.92 382.742 212.474 388.028C211.027 393.313 214.141 398.77 219.426 400.216C249.361 408.405 277.57 412.596 302.284 412.596C305.631 412.596 308.907 412.509 312.121 412.355C313.184 418.749 316.166 424.881 321.086 429.8C327.358 436.053 335.596 439.178 343.837 439.178C346.147 439.178 348.456 438.923 350.724 438.431L385.67 497.544C387.561 500.745 393.313 510.482 404.061 511.842C404.876 511.945 405.691 511.997 406.506 511.997C412.862 511.997 419.212 508.865 425.417 502.661L502.654 425.42C509.657 418.424 512.746 411.238 511.839 404.069V404.069ZM63.8445 113.287C64.4081 112.724 65.0758 112.136 65.947 111.44C69.6617 108.466 70.7432 103.275 68.5237 99.0652C62.8543 88.3129 66.9441 78.3721 72.6611 72.6551C78.3781 66.9381 88.3159 62.8503 99.0693 68.5187C103.278 70.7382 108.47 69.6567 111.444 65.942C112.139 65.0728 112.728 64.4041 113.293 63.8375C117.564 59.5671 123.236 57.2166 129.27 57.2166H129.282C135.306 57.2196 140.966 59.5691 145.224 63.8375C146.51 65.1234 147.619 66.5393 148.551 68.0682C143.806 75.0265 141.246 83.2378 141.241 91.8481C141.239 96.1274 141.868 100.309 143.081 104.291C133.468 105.131 124.208 109.357 116.786 116.781C109.362 124.204 105.136 133.463 104.296 143.078C100.322 141.867 96.1493 141.238 91.8779 141.238C91.8699 141.238 91.861 141.238 91.8531 141.238C83.2409 141.243 75.0285 143.804 68.0732 148.547C66.5433 147.614 65.1254 146.504 63.8356 145.214C59.5741 140.962 57.2256 135.303 57.2217 129.279C57.2187 123.241 59.5702 117.563 63.8445 113.287V113.287ZM114.361 245.446C111.65 245.399 109.033 246.433 107.115 248.35C105.198 250.267 104.149 252.886 104.212 255.596C104.357 261.812 102.014 267.658 97.6167 272.056C93.3473 276.325 87.672 278.677 81.6375 278.677C75.603 278.677 69.9276 276.325 65.6583 272.055C62.894 269.29 60.8838 265.829 59.846 262.042C58.4232 256.854 53.1259 253.744 47.901 255.033C40.1093 256.954 32.1024 254.737 26.4717 249.087C22.1983 244.814 19.8468 239.136 19.8508 233.097C19.8538 227.074 22.2033 221.414 26.4717 217.155C27.198 216.428 27.8508 215.841 28.469 215.361C32.2681 212.405 33.3982 207.151 31.1499 202.895C25.4706 192.145 29.5524 182.209 35.2655 176.496C40.9785 170.783 50.9143 166.702 61.6617 172.38C65.9172 174.629 71.1728 173.498 74.1276 169.699C74.6078 169.081 75.1942 168.428 75.9284 167.694C80.18 163.434 85.8384 161.084 91.862 161.081H91.8759C95.7147 161.081 99.4036 162.041 102.682 163.833C98.0275 170.764 95.5271 178.913 95.5321 187.446C95.5381 198.773 99.9563 209.419 107.965 217.409C115.707 225.151 125.799 229.457 136.348 229.827C135.261 233.19 133.39 236.278 130.818 238.849C126.423 243.247 120.586 245.588 114.361 245.446V245.446ZM226.359 193.158C221.994 197.543 216.12 199.87 209.884 199.766C207.194 199.709 204.58 200.761 202.671 202.67C200.762 204.579 199.713 207.183 199.767 209.883C199.891 216.142 197.544 221.994 193.136 226.383C188.884 230.645 183.225 232.993 177.201 232.997C177.197 232.997 177.193 232.997 177.188 232.997C171.156 232.997 165.483 230.646 161.212 226.375C158.42 223.583 156.416 220.132 155.417 216.396C154.233 211.967 150.229 209.034 145.838 209.034C145.045 209.034 144.241 209.13 143.437 209.329C135.671 211.26 127.655 209.037 121.99 203.371C117.728 199.12 115.38 193.46 115.376 187.437C115.373 181.399 117.724 175.72 121.997 171.448C122.562 170.881 123.231 170.294 124.101 169.598C127.816 166.624 128.897 161.433 126.678 157.223C121.009 146.471 125.098 136.531 130.815 130.813C136.532 125.096 146.47 121.008 157.223 126.677C161.432 128.895 166.626 127.814 169.598 124.098C170.292 123.231 170.88 122.562 171.447 121.995C175.717 117.724 181.389 115.374 187.423 115.374H187.436C193.459 115.377 199.119 117.726 203.378 121.995C209.036 127.653 211.26 135.668 209.328 143.435C208.023 148.687 211.166 154.017 216.394 155.415C220.13 156.414 223.581 158.418 226.373 161.21C230.647 165.483 232.998 171.162 232.994 177.2C232.992 183.223 230.644 188.882 226.359 193.158V193.158ZM272.054 97.6127C267.656 102.01 261.814 104.337 255.596 104.208C252.894 104.137 250.267 105.193 248.35 107.111C246.433 109.028 245.384 111.646 245.447 114.357C245.591 120.574 243.248 126.419 238.851 130.816C236.28 133.387 233.193 135.258 229.83 136.345C229.46 125.797 225.156 115.705 217.42 107.969C209.421 99.9523 198.776 95.534 187.449 95.5271C187.441 95.5271 187.433 95.5271 187.425 95.5271C178.901 95.5271 170.762 98.0264 163.838 102.677C162.045 99.3947 161.084 95.7007 161.086 91.858C161.089 85.8344 163.439 80.1749 167.707 75.9155C168.434 75.1882 169.087 74.6008 169.703 74.1216C173.502 71.1658 174.633 65.9112 172.384 61.6557C166.705 50.9053 170.787 40.9695 176.501 35.2565C182.213 29.5435 192.149 25.4606 202.898 31.1409C207.156 33.3912 212.413 32.2571 215.368 28.456C215.843 27.8438 216.43 27.192 217.166 26.4548C221.417 22.1933 227.077 19.8448 233.1 19.8408H233.113C239.146 19.8408 244.819 22.1923 249.1 26.4746C254.738 32.0934 256.957 40.1004 255.035 47.893C253.746 53.1169 256.855 58.4152 262.043 59.838C265.829 60.8758 269.291 62.886 272.055 65.6503C276.325 69.9197 278.677 75.595 278.677 81.6295C278.676 87.668 276.323 93.3433 272.054 97.6127ZM335.11 415.759C330.304 410.952 330.307 403.116 335.113 398.284L398.199 335.198C400.522 332.875 403.626 331.596 406.944 331.596H406.954C410.261 331.599 413.353 332.874 415.679 335.209C417.992 337.513 419.267 340.604 419.269 343.912C419.272 347.234 417.993 350.343 415.667 352.669L352.59 415.748C347.769 420.554 339.921 420.555 335.11 415.759V415.759ZM488.625 411.393L411.388 488.632C408.579 491.442 406.982 492.02 406.564 492.129C406.19 491.918 404.836 490.968 402.759 487.451L367.907 428.496L428.483 367.919L487.448 402.764C490.963 404.839 491.912 406.193 492.124 406.567C492.013 406.985 491.435 408.583 488.625 411.393Z" fill="white" stroke="white" stroke-width="4" mask="url(#path-4-inside-1)"/>
<path d="M306.657 208.702C308.877 213.105 307.118 218.497 302.723 220.714C301.424 221.368 300.047 221.677 298.693 221.677C295.441 221.677 292.321 219.898 290.756 216.797L290.73 216.746L290.73 216.746L290.726 216.736C288.507 212.337 290.274 206.971 294.674 204.753L294.675 204.753C299.073 202.532 304.438 204.301 306.657 208.702ZM306.657 208.702L307.55 208.252L306.657 208.702Z" fill="white" stroke="white" stroke-width="2"/>
<path d="M173.161 383.015L173.161 383.015L173.155 383.009C169.7 379.494 169.749 373.846 173.263 370.391L172.562 369.678L173.263 370.391C176.775 366.937 182.425 366.985 185.879 370.499C189.336 374.015 189.297 379.678 185.785 383.131C184.043 384.843 181.784 385.697 179.524 385.697C177.224 385.697 174.928 384.812 173.186 383.041L173.161 383.015Z" fill="white" stroke="white" stroke-width="2"/>
</svg>
